<svg width="24" height="25" viewBox="0 0 24 25" fill="none" xmlns="http://www.w3.org/2000/svg">
<path fill-rule="evenodd" clip-rule="evenodd" d="M3.67231 7.1181C2.99301 8.26771 2.76944 9.77462 2.98536 11.07C3.41005 13.6178 5.61967 15.9138 7.96408 17.6501C9.10741 18.4969 10.2252 19.1685 11.0586 19.6287C11.4433 19.8411 11.7654 20.0074 11.999 20.1241C12.2326 20.0074 12.5547 19.8411 12.9394 19.6287C13.7728 19.1685 14.8906 18.4969 16.034 17.6502C18.3784 15.9139 20.588 13.6178 21.0127 11.07C21.2286 9.77464 21.005 8.26773 20.3256 7.1181C19.6716 6.0113 18.6052 5.23438 16.9991 5.23438C15.3919 5.23438 14.4126 6.01636 13.799 6.83438C13.4861 7.2516 13.2741 7.67409 13.1408 7.994C13.0747 8.15264 13.0295 8.28236 13.0018 8.36852C12.988 8.4115 12.9786 8.4433 12.9733 8.46207L12.9683 8.48009L12.9687 8.47853C12.9685 8.47959 12.9686 8.47904 12.9683 8.48009C12.9682 8.48045 12.9684 8.47988 12.9683 8.48009C12.8556 8.92311 12.4565 9.23438 11.999 9.23437C11.5415 9.23437 11.1425 8.92393 11.0299 8.48088C11.0298 8.48067 11.0299 8.48122 11.0299 8.48088L11.0247 8.46204C11.0193 8.44327 11.01 8.41147 10.9962 8.36849C10.9685 8.28234 10.9233 8.15261 10.8572 7.99398C10.7239 7.67406 10.5119 7.25158 10.199 6.83437C9.5855 6.01636 8.60615 5.23437 6.99893 5.23438C5.39271 5.23438 4.3263 6.01132 3.67231 7.1181ZM11.999 8.23438C11.0288 8.47689 11.029 8.47732 11.0291 8.47774L11.0296 8.47975L11.0299 8.48088M11.999 5.91533C11.9361 5.82221 11.8695 5.72836 11.799 5.63437C10.9125 4.45238 9.39184 3.23437 6.99893 3.23438C4.60502 3.23438 2.92142 4.45744 1.95045 6.10066C1.00478 7.70105 0.728432 9.69413 1.01258 11.3988C1.57439 14.7693 4.36478 17.4732 6.77376 19.2574C8.00712 20.1708 9.20437 20.8895 10.0918 21.3795C10.5364 21.6251 10.9056 21.8144 11.1655 21.9433C11.2955 22.0078 11.3984 22.0572 11.4699 22.0911C11.5057 22.108 11.5337 22.121 11.5532 22.1301L11.5763 22.1407L11.583 22.1438L11.5852 22.1447C11.5855 22.1449 11.5865 22.1453 11.999 21.2344L11.5865 22.1453C11.8487 22.2641 12.1493 22.2641 12.4115 22.1453L11.999 21.2344C12.4115 22.1453 12.4112 22.1455 12.4115 22.1453L12.4149 22.1438L12.4217 22.1407L12.4447 22.1301C12.4643 22.121 12.4923 22.108 12.528 22.0911C12.5996 22.0572 12.7024 22.0078 12.8325 21.9433C13.0924 21.8144 13.4616 21.6251 13.9062 21.3795C14.7936 20.8895 15.9909 20.1708 17.2243 19.2574C19.6333 17.4733 22.4237 14.7693 22.9855 11.3988C23.2696 9.69411 22.9932 7.70103 22.0475 6.10065C21.0765 4.45745 19.3929 3.23438 16.9991 3.23438C14.6062 3.23438 13.0855 4.45239 12.199 5.63437C12.1285 5.72835 12.0619 5.82221 11.999 5.91533Z"/>
</svg>
