<svg width="323" height="176" viewBox="0 0 323 176" fill="none" xmlns="http://www.w3.org/2000/svg">
<path d="M233.404 31.0845C258.081 47.8238 282.407 67.33 287.133 90.5713C291.858 113.813 276.807 140.789 252.305 155.453C227.804 170.118 193.676 172.608 160.074 172.193C126.471 171.778 93.2189 168.596 68.8921 153.932C44.5654 139.268 28.9893 112.983 37.2149 93.3382C45.4404 73.6937 77.4677 60.5512 101.794 43.8119C126.296 27.0726 142.922 6.87473 163.574 3.69287C184.225 0.511017 208.902 14.3452 233.404 31.0845Z" fill="#EDEDED"/>
<path d="M186.676 36.4414H199.509C202.913 36.4414 206.177 37.7935 208.584 40.2002C210.99 42.6069 212.342 45.8711 212.342 49.2747V139.108C212.342 142.512 210.99 145.776 208.584 148.183C206.177 150.589 202.913 151.941 199.509 151.941H122.509C119.106 151.941 115.841 150.589 113.435 148.183C111.028 145.776 109.676 142.512 109.676 139.108V49.2747C109.676 45.8711 111.028 42.6069 113.435 40.2002C115.841 37.7935 119.106 36.4414 122.509 36.4414H135.342" stroke="#1D1D1F" stroke-width="5" stroke-linecap="round" stroke-linejoin="round"/>
<path d="M184.251 29.0625H145.751C142.207 29.0625 139.334 31.9353 139.334 35.4792V48.3125C139.334 51.8563 142.207 54.7292 145.751 54.7292H184.251C187.794 54.7292 190.667 51.8563 190.667 48.3125V35.4792C190.667 31.9353 187.794 29.0625 184.251 29.0625Z" fill="#FF6633"/>
<path d="M180.251 24.0664H141.751C138.207 24.0664 135.334 26.9392 135.334 30.4831V43.3164C135.334 46.8602 138.207 49.7331 141.751 49.7331H180.251C183.794 49.7331 186.667 46.8602 186.667 43.3164V30.4831C186.667 26.9392 183.794 24.0664 180.251 24.0664Z" stroke="#1D1D1F" stroke-width="5" stroke-linecap="round" stroke-linejoin="round"/>
<path d="M190.026 100.906H128.158" stroke="#1D1D1F" stroke-width="5" stroke-linecap="round" stroke-linejoin="round"/>
<path d="M190.026 131.891H128.158" stroke="#1D1D1F" stroke-width="5" stroke-linecap="round" stroke-linejoin="round"/>
<path d="M190.426 70.2344H159.09H127.754" stroke="#1D1D1F" stroke-width="5" stroke-linecap="round" stroke-linejoin="round"/>
<circle cx="278.002" cy="29.2344" r="10" stroke="#1D1D1F" stroke-width="3" stroke-linecap="round" stroke-linejoin="round"/>
<path d="M76.0703 19.2344L75.4654 21.1407" stroke="#1D1D1F" stroke-width="3" stroke-linecap="round" stroke-linejoin="round"/>
<path d="M83.8848 34.3008L81.9784 33.6959" stroke="#1D1D1F" stroke-width="3" stroke-linecap="round" stroke-linejoin="round"/>
<path d="M62.9062 27.6484L60.9999 27.0436" stroke="#1D1D1F" stroke-width="3" stroke-linecap="round" stroke-linejoin="round"/>
<path d="M69.4141 40.2031L68.8092 42.1095" stroke="#1D1D1F" stroke-width="3" stroke-linecap="round" stroke-linejoin="round"/>
</svg>
