<svg width="16" height="17" viewBox="0 0 16 17" fill="none" xmlns="http://www.w3.org/2000/svg">
<path fill-rule="evenodd" clip-rule="evenodd" d="M11.8111 3.39844C11.677 3.39844 11.5442 3.42486 11.4202 3.4762C11.2963 3.52754 11.1837 3.60278 11.0888 3.69764L3.92039 10.8661L3.37864 12.8525L5.36508 12.3107L12.5335 5.14233C12.6283 5.04747 12.7036 4.93485 12.7549 4.81091C12.8063 4.68698 12.8327 4.55414 12.8327 4.41998C12.8327 4.28583 12.8063 4.15299 12.7549 4.02906C12.7036 3.90512 12.6283 3.7925 12.5335 3.69764C12.4386 3.60278 12.326 3.52754 12.2021 3.4762C12.0781 3.42486 11.9453 3.39844 11.8111 3.39844ZM11.0375 2.55232C11.2828 2.45073 11.5457 2.39844 11.8111 2.39844C12.0766 2.39844 12.3395 2.45073 12.5848 2.55232C12.83 2.65391 13.0529 2.80282 13.2406 2.99053C13.4283 3.17825 13.5772 3.40111 13.6788 3.64637C13.7804 3.89164 13.8327 4.15451 13.8327 4.41998C13.8327 4.68546 13.7804 4.94833 13.6788 5.1936C13.5772 5.43886 13.4283 5.66172 13.2406 5.84943L5.9783 13.1117C5.91677 13.1733 5.84025 13.2177 5.7563 13.2406L2.79759 14.0475C2.62448 14.0947 2.43935 14.0455 2.31247 13.9187C2.1856 13.7918 2.13643 13.6067 2.18365 13.4335L2.99057 10.4748C3.01346 10.3909 3.05787 10.3144 3.1194 10.2528L10.3817 2.99053C10.5694 2.80282 10.7923 2.65391 11.0375 2.55232Z"/>
</svg>
