<svg width="22" height="22" viewBox="0 0 22 22" fill="none" xmlns="http://www.w3.org/2000/svg">
<path fill-rule="evenodd" clip-rule="evenodd" d="M17.0879 5.55078C17.4239 5.88671 17.4239 6.43137 17.0879 6.76731L6.76535 17.0899C6.42942 17.4258 5.88476 17.4258 5.54883 17.0899C5.21289 16.754 5.21289 16.2093 5.54883 15.8734L15.8714 5.55078C16.2073 5.21484 16.752 5.21484 17.0879 5.55078Z" fill="#1D1D1F"/>
<path fill-rule="evenodd" clip-rule="evenodd" d="M5.54883 5.55078C5.88476 5.21484 6.42942 5.21484 6.76535 5.55078L17.0879 15.8734C17.4239 16.2093 17.4239 16.754 17.0879 17.0899C16.752 17.4258 16.2073 17.4258 15.8714 17.0899L5.54883 6.76731C5.21289 6.43137 5.21289 5.88671 5.54883 5.55078Z" fill="#1D1D1F"/>
</svg>
