<svg width="152" height="46" viewBox="0 0 152 46" fill="none" xmlns="http://www.w3.org/2000/svg">
<path d="M146.37 0H5.62963C2.52047 0 0 2.57436 0 5.75V40.25C0 43.4256 2.52047 46 5.62963 46H146.37C149.48 46 152 43.4256 152 40.25V5.75C152 2.57436 149.48 0 146.37 0Z" fill="#1D1D1F"/>
<path d="M76.7241 20.9498C75.7755 20.9521 74.8488 21.2416 74.0613 21.7818C73.2737 22.322 72.6607 23.0886 72.2998 23.9847C71.9388 24.8807 71.8461 25.866 72.0333 26.8158C72.2206 27.7657 72.6794 28.6375 73.3518 29.321C74.0241 30.0046 74.8798 30.4691 75.8107 30.6559C76.7415 30.8427 77.7057 30.7434 78.5813 30.3705C79.4569 29.9976 80.2045 29.3679 80.7297 28.561C81.2549 27.7541 81.534 26.8062 81.5318 25.8373C81.541 25.1909 81.4228 24.5493 81.1841 23.9506C80.9455 23.3518 80.5913 22.8083 80.1427 22.3522C79.6941 21.8962 79.1603 21.537 78.573 21.2961C77.9857 21.0552 77.3569 20.9374 76.7241 20.9498ZM76.7241 28.8043C76.1427 28.8458 75.5624 28.7078 75.0588 28.408C74.5552 28.1083 74.1516 27.6607 73.9003 27.1235C73.6491 26.5863 73.5618 25.9844 73.65 25.3959C73.7381 24.8074 73.9975 24.2596 74.3945 23.8237C74.7915 23.3878 75.3077 23.084 75.876 22.9517C76.4443 22.8194 77.0385 22.8648 77.5812 23.082C78.1239 23.2992 78.59 23.6781 78.9191 24.1695C79.2482 24.6609 79.4249 25.242 79.4263 25.8373C79.4445 26.2145 79.3885 26.5916 79.2617 26.9464C79.1348 27.3012 78.9397 27.6264 78.6879 27.9029C78.436 28.1794 78.1325 28.4017 77.7953 28.5565C77.458 28.7113 77.0938 28.7956 76.7241 28.8043ZM66.2305 20.9498C65.2818 20.9521 64.3552 21.2416 63.5676 21.7818C62.7801 22.322 62.1671 23.0886 61.8061 23.9847C61.4452 24.8807 61.3524 25.866 61.5397 26.8158C61.7269 27.7657 62.1858 28.6375 62.8581 29.321C63.5305 30.0046 64.3862 30.4691 65.3171 30.6559C66.2479 30.8427 67.2121 30.7434 68.0877 30.3705C68.9633 29.9976 69.7109 29.3679 70.2361 28.561C70.7613 27.7541 71.0404 26.8062 71.0382 25.8373C71.0474 25.1909 70.9291 24.5493 70.6905 23.9506C70.4518 23.3518 70.0977 22.8083 69.6491 22.3522C69.2005 21.8962 68.6667 21.537 68.0794 21.2961C67.492 21.0552 66.8633 20.9374 66.2305 20.9498ZM66.2305 28.8043C65.649 28.8458 65.0688 28.7078 64.5652 28.408C64.0616 28.1083 63.6579 27.6607 63.4067 27.1235C63.1554 26.5863 63.0682 25.9844 63.1563 25.3959C63.2445 24.8074 63.5039 24.2596 63.9009 23.8237C64.2979 23.3878 64.8141 23.084 65.3824 22.9517C65.9507 22.8194 66.5448 22.8648 67.0875 23.082C67.6302 23.2992 68.0964 23.6781 68.4255 24.1695C68.7546 24.6609 68.9313 25.242 68.9327 25.8373C68.9508 26.2145 68.8949 26.5916 68.768 26.9464C68.6412 27.3012 68.4461 27.6264 68.1943 27.9029C67.9424 28.1794 67.6389 28.4017 67.3016 28.5565C66.9644 28.7113 66.6002 28.7956 66.2305 28.8043ZM53.7552 22.4563V24.5263H58.6192C58.543 25.5013 58.1462 26.4213 57.4933 27.1368C57.0054 27.6446 56.4186 28.042 55.7708 28.3035C55.123 28.565 54.4286 28.6847 53.7327 28.6548C52.2994 28.6548 50.9247 28.0732 49.9112 27.038C48.8977 26.0028 48.3283 24.5988 48.3283 23.1348C48.3283 21.6708 48.8977 20.2668 49.9112 19.2316C50.9247 18.1964 52.2994 17.6148 53.7327 17.6148C55.1068 17.5939 56.4337 18.1269 57.4257 19.0983L58.8557 17.6378C58.1846 16.9599 57.3878 16.4256 56.512 16.0662C55.6362 15.7068 54.699 15.5295 53.7552 15.5448C52.7543 15.505 51.7558 15.672 50.8195 16.0358C49.8833 16.3996 49.0286 16.9527 48.3066 17.662C47.5846 18.3712 47.0103 19.222 46.618 20.1634C46.2257 21.1048 46.0234 22.1174 46.0234 23.1406C46.0234 24.1637 46.2257 25.1763 46.618 26.1177C47.0103 27.0591 47.5846 27.9099 48.3066 28.6192C49.0286 29.3284 49.8833 29.8815 50.8195 30.2453C51.7558 30.6091 52.7543 30.7761 53.7552 30.7363C54.7184 30.7756 55.6788 30.6064 56.5733 30.2397C57.4679 29.873 58.2764 29.3172 58.9457 28.6088C60.1281 27.2822 60.7581 25.5374 60.7022 23.7443C60.7062 23.3127 60.6723 22.8817 60.6009 22.4563H53.7552ZM104.771 24.0663C104.477 23.184 103.928 22.4135 103.196 21.857C102.464 21.3005 101.584 20.9841 100.673 20.9498C100.057 20.9486 99.4471 21.0764 98.8815 21.3253C98.3159 21.5743 97.8063 21.939 97.3842 22.3971C96.9621 22.8552 96.6364 23.3968 96.4274 23.9886C96.2183 24.5803 96.1304 25.2095 96.1689 25.8373C96.1592 26.8871 96.4824 27.9119 97.09 28.7586C97.6976 29.6053 98.5571 30.2286 99.5402 30.5352C100.523 30.8419 101.577 30.8155 102.544 30.46C103.511 30.1045 104.34 29.439 104.906 28.5628L103.273 27.4128C103.03 27.8271 102.685 28.1693 102.272 28.4053C101.859 28.6413 101.393 28.763 100.92 28.7583C100.432 28.7789 99.9496 28.6482 99.5356 28.3835C99.1217 28.1187 98.7958 27.7322 98.6009 27.2748L105.007 24.5723L104.771 24.0663ZM98.2406 25.6993C98.2177 25.3427 98.265 24.985 98.3796 24.6473C98.4941 24.3096 98.6737 23.9987 98.9076 23.733C99.1416 23.4672 99.4252 23.252 99.7419 23.0999C100.059 22.9478 100.402 22.8619 100.751 22.8473C101.113 22.8237 101.473 22.9092 101.788 23.0932C102.102 23.2773 102.356 23.5517 102.519 23.8823L98.2406 25.6993ZM93.0388 30.4373H95.1443V16.0623H93.0388V30.4373ZM89.5935 22.0423H89.5146C89.195 21.6869 88.8045 21.4055 88.3694 21.2171C87.9344 21.0286 87.4649 20.9375 86.9926 20.9498C85.7621 21.0108 84.6018 21.5529 83.7521 22.4639C82.9024 23.3749 82.4284 24.5848 82.4284 25.8431C82.4284 27.1013 82.9024 28.3113 83.7521 29.2222C84.6018 30.1332 85.7621 30.6754 86.9926 30.7363C87.4699 30.7461 87.9435 30.6481 88.3795 30.4493C88.8154 30.2505 89.2031 29.9558 89.5146 29.5863H89.5935V30.2878C89.5935 32.1623 88.6139 33.1628 87.0376 33.1628C86.511 33.151 85.9998 32.9796 85.5688 32.6704C85.1378 32.3613 84.8064 31.9282 84.6169 31.4263L82.7929 32.1968C83.1301 33.0619 83.7164 33.8021 84.4743 34.3195C85.2322 34.837 86.126 35.1073 87.0376 35.0948C89.5034 35.0948 91.5413 33.6113 91.5413 30.0003V21.2373H89.5935V22.0423ZM87.1727 28.8043C86.435 28.7573 85.7426 28.4249 85.2365 27.8747C84.7303 27.3245 84.4486 26.598 84.4486 25.8431C84.4486 25.0881 84.7303 24.3616 85.2365 23.8114C85.7426 23.2612 86.435 22.9288 87.1727 22.8818C87.5333 22.8977 87.887 22.9875 88.2129 23.1459C88.5388 23.3043 88.8302 23.528 89.0697 23.8037C89.3092 24.0795 89.4919 24.4016 89.6071 24.751C89.7222 25.1003 89.7673 25.4698 89.7398 25.8373C89.7705 26.2061 89.7277 26.5774 89.6139 26.9288C89.5001 27.2802 89.3177 27.6044 89.0777 27.8818C88.8378 28.1591 88.5452 28.3839 88.2178 28.5424C87.8903 28.701 87.5348 28.7901 87.1727 28.8043ZM114.634 16.0623H109.59V30.4373H111.695V24.9863H114.634C115.234 25.0303 115.837 24.9476 116.404 24.7434C116.971 24.5391 117.492 24.2176 117.932 23.7989C118.372 23.3803 118.723 22.8735 118.964 22.3101C119.204 21.7467 119.328 21.1388 119.328 20.5243C119.328 19.9098 119.204 19.302 118.964 18.7386C118.723 18.1752 118.372 17.6683 117.932 17.2497C117.492 16.8311 116.971 16.5096 116.404 16.3053C115.837 16.101 115.234 16.0183 114.634 16.0623ZM114.634 22.9623H111.695V18.0633H114.679C115.318 18.0633 115.931 18.3226 116.383 18.7841C116.835 19.2457 117.089 19.8716 117.089 20.5243C117.089 21.177 116.835 21.803 116.383 22.2645C115.931 22.726 115.318 22.9853 114.679 22.9853L114.634 22.9623ZM127.627 20.9038C126.86 20.8555 126.097 21.0378 125.43 21.4282C124.764 21.8186 124.224 22.3999 123.878 23.1003L125.736 23.8938C125.923 23.5481 126.205 23.2654 126.547 23.0796C126.888 22.8939 127.275 22.8132 127.661 22.8473C127.928 22.8154 128.199 22.8382 128.458 22.9144C128.716 22.9905 128.957 23.1185 129.167 23.2909C129.377 23.4632 129.55 23.6765 129.679 23.9182C129.807 24.16 129.886 24.4253 129.913 24.6988V24.8368C129.236 24.4733 128.482 24.2839 127.717 24.2848C125.713 24.2848 123.664 25.4348 123.664 27.5278C123.684 27.9727 123.791 28.4089 123.979 28.8107C124.167 29.2124 124.432 29.5715 124.759 29.8665C125.086 30.1615 125.467 30.3864 125.88 30.5279C126.294 30.6695 126.731 30.7247 127.166 30.6903C127.694 30.7202 128.221 30.606 128.691 30.3594C129.162 30.1129 129.561 29.7429 129.845 29.2873H129.913V30.4373H131.94V24.9058C131.94 22.3873 130.07 20.9268 127.672 20.9268L127.627 20.9038ZM127.368 28.7813C126.681 28.7813 125.724 28.4248 125.724 27.5623C125.724 26.4123 126.918 26.0213 127.976 26.0213C128.645 26.0045 129.306 26.1713 129.89 26.5043C129.82 27.1288 129.53 27.706 129.074 28.1289C128.619 28.5518 128.029 28.7918 127.413 28.8043L127.368 28.7813ZM139.326 21.2373L136.916 27.4703H136.849L134.349 21.2373H132.097L135.846 29.9543L133.707 34.7958H135.959L141.668 21.2373H139.326ZM120.41 30.4373H122.504V16.0623H120.41V30.4373Z" fill="white"/>
<path d="M11.7511 8.68597C11.3823 9.15565 11.2085 9.75434 11.267 10.3535V35.7685C11.2327 36.3529 11.4179 36.9287 11.7849 37.3785L11.875 37.4705L25.7802 23.176V22.831L11.8412 8.60547L11.7511 8.68597Z" fill="#5BC9F4"/>
<path d="M30.3947 27.9108L25.7559 23.1728V22.8278L30.3947 18.0898H30.5073L36.0243 21.3443C37.5893 22.2528 37.5893 23.7478 36.0243 24.6563L30.5185 27.8533L30.3947 27.9108Z" fill="url(#paint0_linear_3139_457725)"/>
<path d="M30.5265 27.853L25.7751 23L11.7461 37.3175C12.0664 37.6081 12.4766 37.7742 12.9048 37.7868C13.333 37.7994 13.7519 37.6577 14.088 37.3865L30.5265 27.853Z" fill="url(#paint1_linear_3139_457725)"/>
<path d="M30.5265 18.1455L14.088 8.61204C13.7519 8.34082 13.333 8.1991 12.9048 8.21171C12.4766 8.22433 12.0664 8.39048 11.7461 8.68104L25.7751 22.9985L30.5265 18.1455Z" fill="url(#paint2_linear_3139_457725)"/>
<path d="M146.37 0.92C147.625 0.92 148.827 1.42887 149.714 2.33467C150.601 3.24047 151.099 4.469 151.099 5.75V40.25C151.099 41.531 150.601 42.7595 149.714 43.6653C148.827 44.5711 147.625 45.08 146.37 45.08H5.62963C4.37545 45.08 3.17264 44.5711 2.2858 43.6653C1.39896 42.7595 0.900741 41.531 0.900741 40.25V5.75C0.900741 4.469 1.39896 3.24047 2.2858 2.33467C3.17264 1.42887 4.37545 0.92 5.62963 0.92H146.37ZM146.37 0H5.62963C4.13656 0 2.70464 0.605802 1.64888 1.68414C0.59312 2.76247 0 4.22501 0 5.75L0 40.25C0 41.775 0.59312 43.2375 1.64888 44.3159C2.70464 45.3942 4.13656 46 5.62963 46H146.37C147.863 46 149.295 45.3942 150.351 44.3159C151.407 43.2375 152 41.775 152 40.25V5.75C152 4.22501 151.407 2.76247 150.351 1.68414C149.295 0.605802 147.863 0 146.37 0V0Z" fill="#1D1D1F"/>
<defs>
<linearGradient id="paint0_linear_3139_457725" x1="34.9997" y1="23.0003" x2="7.77482" y2="23.0003" gradientUnits="userSpaceOnUse">
<stop stop-color="#FEE000"/>
<stop offset="0.42" stop-color="#FBBC0E"/>
<stop offset="0.78" stop-color="#FAA418"/>
<stop offset="1" stop-color="#F99B1C"/>
</linearGradient>
<linearGradient id="paint1_linear_3139_457725" x1="27.9369" y1="25.6335" x2="1.79176" y2="51.2313" gradientUnits="userSpaceOnUse">
<stop stop-color="#EF4547"/>
<stop offset="1" stop-color="#C6186D"/>
</linearGradient>
<linearGradient id="paint2_linear_3139_457725" x1="2.22076" y1="-5.90096" x2="23.5712" y2="14.9913" gradientUnits="userSpaceOnUse">
<stop stop-color="#279E6F"/>
<stop offset="0.04" stop-color="#2BA06F"/>
<stop offset="0.46" stop-color="#53B26C"/>
<stop offset="0.8" stop-color="#6BBD6A"/>
<stop offset="1" stop-color="#74C169"/>
</linearGradient>
</defs>
</svg>
