<svg width="24" height="24" viewBox="0 0 24 24" fill="none" xmlns="http://www.w3.org/2000/svg">
<path d="M10.2752 6.72471C10.4752 6.92471 10.5712 7.16637 10.5632 7.44971C10.5552 7.73304 10.4509 7.97471 10.2502 8.17471L7.42519 10.9997L18.5752 10.9997C18.8585 10.9997 19.0962 11.0957 19.2882 11.2877C19.4802 11.4797 19.5759 11.717 19.5752 11.9997C19.5752 12.283 19.4792 12.5207 19.2872 12.7127C19.0952 12.9047 18.8579 13.0004 18.5752 12.9997L7.42519 12.9997L10.2752 15.8497C10.4752 16.0497 10.5752 16.2874 10.5752 16.5627C10.5752 16.838 10.4752 17.0754 10.2752 17.2747C10.0752 17.4747 9.83753 17.5747 9.56219 17.5747C9.28686 17.5747 9.04952 17.4747 8.85019 17.2747L4.27519 12.6997C4.17519 12.5997 4.10419 12.4914 4.06219 12.3747C4.02019 12.258 3.99952 12.133 4.00019 11.9997C4.00019 11.8664 4.02119 11.7414 4.06319 11.6247C4.10519 11.508 4.17586 11.3997 4.27519 11.2997L8.87519 6.69971C9.05853 6.51637 9.28753 6.42471 9.56219 6.42471C9.83686 6.42471 10.0745 6.52471 10.2752 6.72471Z"/>
</svg>
