<svg width="22" height="22" viewBox="0 0 22 22" fill="none" xmlns="http://www.w3.org/2000/svg">
<path fill-rule="evenodd" clip-rule="evenodd" d="M17.0723 5.28711C17.4082 5.62304 17.4082 6.1677 17.0723 6.50364L6.74973 16.8262C6.41379 17.1622 5.86914 17.1622 5.5332 16.8262C5.19727 16.4903 5.19727 15.9456 5.5332 15.6097L15.8558 5.28711C16.1917 4.95117 16.7364 4.95117 17.0723 5.28711Z"/>
<path fill-rule="evenodd" clip-rule="evenodd" d="M5.5332 5.28711C5.86914 4.95117 6.41379 4.95117 6.74973 5.28711L17.0723 15.6097C17.4082 15.9456 17.4082 16.4903 17.0723 16.8262C16.7364 17.1622 16.1917 17.1622 15.8558 16.8262L5.5332 6.50364C5.19727 6.1677 5.19727 5.62304 5.5332 5.28711Z"/>
</svg>
