<svg width="224" height="176" viewBox="0 0 224 176" fill="none" xmlns="http://www.w3.org/2000/svg">
<path d="M222.428 36.7825C231.123 60.795 201.967 97.4098 178.779 125.339C155.591 153.269 138.37 172.342 116.375 174.897C94.5511 177.622 68.1233 163.657 52.4371 139.985C36.5804 116.484 31.2948 82.9342 44.4235 56.3672C57.7226 29.9705 89.2655 10.3859 128.311 6.12833C167.355 1.8708 213.732 12.9404 222.428 36.7825Z" fill="#EDEDED"/>
<path d="M137.818 100.293C138.492 98.9921 139.313 97.7516 140.276 96.5948C147.541 87.8673 160.552 86.6083 169.355 93.7811C178.179 100.971 179.431 113.905 172.149 122.653C170.032 125.197 161.016 134.665 144.877 151.302C143.763 152.45 141.982 152.622 140.67 151.709C121.65 138.483 110.986 130.919 108.41 128.821C99.5864 121.631 98.3348 108.697 105.617 99.9485C112.881 91.221 125.893 89.962 134.696 97.1348C135.863 98.0855 136.906 99.1456 137.818 100.293Z" fill="#FF6633"/>
<path d="M133.818 95.2934C134.492 93.9921 135.313 92.7516 136.276 91.5948C143.541 82.8673 156.552 81.6083 165.355 88.7811C174.179 95.9708 175.431 108.905 168.149 117.653C166.032 120.197 157.016 129.665 140.877 146.302C139.763 147.45 137.982 147.622 136.67 146.709C117.65 133.483 106.986 125.919 104.41 123.821C95.5864 116.631 94.3348 103.697 101.617 94.9485C108.881 86.221 121.893 84.962 130.696 92.1348C131.863 93.0855 132.906 94.1456 133.818 95.2934Z" stroke="#1D1D1F" stroke-width="4" stroke-linecap="round" stroke-linejoin="round"/>
<path d="M181.972 6.05286C182.303 5.41734 182.705 4.81151 183.176 4.24655C186.734 -0.0158254 193.107 -0.630704 197.418 2.87237C201.739 6.38368 202.352 12.7006 198.786 16.973C197.749 18.2153 193.334 22.8391 185.429 30.9647C184.884 31.5253 184.012 31.6094 183.369 31.1636C174.054 24.7041 168.831 21.0101 167.57 19.985C163.248 16.4737 162.635 10.1568 166.201 5.88445C169.759 1.62207 176.132 1.00719 180.443 4.51026C181.015 4.97458 181.526 5.4923 181.972 6.05286Z" fill="#FF6633"/>
<path d="M180.011 11.6115C180.342 10.9759 180.744 10.3701 181.215 9.80514C184.773 5.54277 191.146 4.92789 195.457 8.43096C199.779 11.9423 200.392 18.2592 196.825 22.5316C195.788 23.7739 191.373 28.3977 183.468 36.5233C182.923 37.0839 182.051 37.168 181.408 36.7222C172.093 30.2627 166.87 26.5687 165.609 25.5436C161.287 22.0323 160.674 15.7154 164.24 11.443C167.798 7.18066 174.171 6.56579 178.482 10.0689C179.054 10.5332 179.565 11.0509 180.011 11.6115Z" stroke="#1D1D1F" stroke-width="4" stroke-linecap="round" stroke-linejoin="round"/>
<path d="M32.0529 32.1066C32.7493 31.2539 33.544 30.4685 34.4301 29.7665C41.1154 24.4699 50.8746 25.5493 56.2409 32.1788C61.6198 38.8238 60.5468 48.5251 53.8458 53.8341C51.8972 55.3779 43.8104 60.9487 29.3823 70.6928C28.387 71.365 27.0512 71.2173 26.2268 70.3439C14.2831 57.6901 7.60883 50.4864 6.03864 48.5466C0.659773 41.9016 1.73275 32.2002 8.43375 26.8912C15.119 21.5947 24.8783 22.6741 30.2445 29.3035C30.9558 30.1822 31.5596 31.1223 32.0529 32.1066Z" fill="#FF6633"/>
<path d="M37.881 29.8136C38.5775 28.961 39.3721 28.1755 40.2582 27.4735C46.9435 22.177 56.7028 23.2563 62.069 29.8858C67.4479 36.5308 66.3749 46.2322 59.6739 51.5412C57.7254 53.0849 49.6386 58.6557 35.2104 68.3999C34.2151 69.0721 32.8793 68.9244 32.0549 68.0509C20.1113 55.3971 13.437 48.1935 11.8668 46.2536C6.4879 39.6086 7.56088 29.9073 14.2619 24.5983C20.9472 19.3017 30.7064 20.3811 36.0727 27.0106C36.7839 27.8893 37.3878 28.8294 37.881 29.8136Z" stroke="#1D1D1F" stroke-width="4" stroke-linecap="round" stroke-linejoin="round"/>
</svg>
