<svg width="136" height="46" viewBox="0 0 136 46" fill="none" xmlns="http://www.w3.org/2000/svg">
<path d="M10.8367 0C10.4195 0 10.008 0 9.59307 0.0023C9.24372 0.0046 8.89889 0.0115 8.54727 0.01725C7.78412 0.02645 7.02324 0.0943 6.27026 0.22195C5.13626 0.411119 4.06201 0.869302 3.1345 1.55939C2.207 2.24948 1.45233 3.15206 0.931608 4.19405C0.58577 4.88867 0.345972 5.63282 0.220465 6.4009C0.0939775 7.16798 0.0259396 7.94386 0.0169589 8.7216C0.00565296 9.07695 0.00565296 9.43345 0 9.7888V36.2158C0.00565296 36.5746 0.00678355 36.9231 0.0169589 37.2842C0.0260036 38.0616 0.0938391 38.8366 0.220465 39.6037C0.34483 40.373 0.585646 41.1171 0.931608 41.8117C1.27565 42.5048 1.7277 43.1366 2.27023 43.6827C2.80733 44.2356 3.42843 44.6969 4.1097 45.0489C4.7897 45.4017 5.51805 45.6483 6.27026 45.7803C7.02324 45.9068 7.78525 45.9758 8.54727 45.985C8.89889 45.9931 9.24372 45.9977 9.59194 45.9977C10.008 46 10.4195 46 10.8356 46H125.169C125.578 46 125.993 46 126.401 45.9977C126.747 45.9977 127.102 45.9931 127.449 45.9862C128.211 45.9762 128.971 45.9073 129.722 45.7803C130.477 45.6474 131.208 45.4009 131.891 45.0489C132.572 44.6965 133.192 44.2352 133.729 43.6827C134.27 43.1345 134.723 42.5031 135.072 41.8117C135.415 41.1162 135.652 40.3717 135.775 39.6037C135.902 38.8369 135.973 38.0616 135.986 37.2842C135.991 36.9231 135.991 36.5746 135.991 36.2146C136 35.7937 136 35.3751 136 34.9473V11.0549C136 10.6294 136 10.2085 135.991 9.7888C135.991 9.4323 135.991 9.0758 135.986 8.7216C135.973 7.94377 135.902 7.16807 135.775 6.4009C135.652 5.63333 135.415 4.88924 135.072 4.19405C134.371 2.80071 133.259 1.66575 131.891 0.94875C131.208 0.597784 130.477 0.352806 129.722 0.22195C128.971 0.0942832 128.211 0.0258462 127.449 0.01725C127.103 0.0115 126.748 0.0046 126.401 0.0023C125.993 0 125.578 0 125.169 0H10.8367Z" fill="#1D1D1F"/>
<path d="M9.81002 44.7523C9.4654 44.7523 9.12869 44.7477 8.78633 44.7409C8.07733 44.7315 7.36997 44.6695 6.67003 44.5552C6.01764 44.4423 5.38553 44.2323 4.79439 43.932C4.20909 43.6344 3.675 43.244 3.21253 42.7756C2.74372 42.3131 2.35325 41.7762 2.05664 41.1863C1.75722 40.5937 1.54991 39.9581 1.44197 39.302C1.32538 38.5966 1.2623 37.8832 1.25328 37.1681C1.2465 36.9289 1.23633 36.1302 1.23633 36.1302V9.8517C1.23633 9.8517 1.24763 9.0656 1.25328 8.83432C1.26205 8.1204 1.32476 7.40819 1.44084 6.70388C1.54931 6.04651 1.75721 5.40852 2.05664 4.81382C2.66015 3.62949 3.61743 2.66626 4.79326 2.06019C5.38284 1.76095 6.01354 1.55243 6.66438 1.44156C7.36685 1.32608 8.0769 1.26363 8.78859 1.25472L9.81002 1.24219H126.183L127.217 1.257C127.922 1.26497 128.626 1.32649 129.322 1.44156C129.98 1.55382 130.617 1.76383 131.213 2.06474C132.387 2.6721 133.344 3.63454 133.948 4.81724C134.244 5.40966 134.448 6.04082 134.555 6.69362C134.672 7.40339 134.738 8.12114 134.751 8.84002C134.755 9.16243 134.755 9.50878 134.755 9.85284C134.764 10.2789 134.764 10.6845 134.764 11.0946V34.9021C134.764 35.3157 134.764 35.719 134.755 36.1257C134.755 36.4959 134.755 36.8343 134.75 37.1829C134.737 37.8893 134.673 38.5938 134.557 39.2906C134.451 39.952 134.245 40.5929 133.946 41.1909C133.647 41.7743 133.259 42.3064 132.795 42.7677C132.332 43.2382 131.798 43.6312 131.21 43.9297C130.615 44.2327 129.979 44.4439 129.322 44.5563C128.621 44.6703 127.914 44.7329 127.206 44.742C126.873 44.7489 126.527 44.7534 126.189 44.7534L124.962 44.7557L9.81002 44.7523Z" fill="#1D1D1F"/>
<path d="M27.4073 22.8671C27.4096 25.1238 28.674 27.162 30.6194 28.0421C30.2466 29.3378 29.6826 30.5648 28.948 31.679C27.9645 33.2528 26.9332 34.791 25.2947 34.8195C23.704 34.8587 23.1685 33.8182 21.3447 33.8182C19.5027 33.8182 18.9319 34.791 17.406 34.8587C15.8472 34.9204 14.6544 33.1792 13.6356 31.6197C11.5969 28.4365 10.0096 22.6473 12.137 18.7087C13.1376 16.7893 15.0046 15.5706 17.0592 15.4994C18.6192 15.4661 20.0689 16.6277 21.0286 16.6277C21.9701 16.6277 23.7609 15.2381 25.6086 15.4447C26.4801 15.477 27.332 15.7237 28.095 16.1647C28.8581 16.6058 29.5107 17.2288 29.9998 17.983C29.2122 18.5068 28.5625 19.2281 28.1097 20.0811C27.657 20.9341 27.4155 21.8917 27.4073 22.8671ZM25.1924 13.4481C24.2691 14.7131 22.8706 15.44 21.397 15.4234C21.2996 13.8522 21.7794 12.3013 22.7387 11.0868C23.6794 9.89142 25.0273 9.12374 26.4989 8.94531C26.6157 10.5644 26.1494 12.1707 25.1913 13.4493L25.1924 13.4481Z" fill="white"/>
<path d="M85.0866 28.9548C83.2184 28.9548 81.8506 27.9868 81.6937 26.5116H79.5197C79.6561 29.2007 81.7824 30.9027 84.9285 30.9027C88.2941 30.9027 90.409 29.1603 90.409 26.3786C90.409 24.205 89.1981 22.9792 86.2873 22.257L84.7227 21.8556C82.8933 21.3817 82.1462 20.7628 82.1462 19.7117C82.1462 18.3933 83.3162 17.487 85.0275 17.487C86.7387 17.487 87.9098 18.3826 88.0383 19.8661H90.1828C90.1134 17.3005 88.0576 15.5391 85.0582 15.5391C82.028 15.5391 79.8938 17.3005 79.8938 19.8661C79.8938 21.9387 81.1036 23.2144 83.7097 23.8748L85.5494 24.338C87.3879 24.8119 88.1657 25.5032 88.1657 26.6565C88.1657 27.9868 86.8774 28.9548 85.0866 28.9548Z" fill="white"/>
<path d="M94.9935 19.815V17.2494H92.8593V19.815H91.3539V21.5776H92.8593V27.7896C92.8593 29.892 93.6757 30.7163 95.7713 30.7163C96.1669 30.7246 96.5615 30.6901 96.9515 30.6141V28.8622C96.7184 28.8919 96.4853 28.9097 96.2522 28.9132C95.3869 28.9132 94.9935 28.4809 94.9935 27.5533V21.5764H96.9606V19.815H94.9935Z" fill="white"/>
<path d="M111.694 19.815H109.669L109.668 30.6545H111.793V24.2252C111.758 23.9038 111.79 23.5783 111.887 23.271C111.983 22.9637 112.142 22.6819 112.353 22.4447C112.562 22.208 112.819 22.0217 113.104 21.8984C113.39 21.7752 113.697 21.718 114.006 21.7309C114.329 21.7212 114.652 21.767 114.961 21.8663V19.7841C114.722 19.7283 114.478 19.701 114.233 19.701C113.666 19.679 113.109 19.8617 112.656 20.2184C112.202 20.5752 111.881 21.0841 111.744 21.6596H111.694V19.815Z" fill="white"/>
<path fill-rule="evenodd" clip-rule="evenodd" d="M74.1665 25.2359C74.1665 28.6032 72.4451 30.7685 69.847 30.7685C69.1885 30.804 68.5339 30.6449 67.9581 30.3094C67.3823 29.9738 66.9087 29.4756 66.5917 28.8717H66.5428V34.2403H64.4188V19.815H66.4746V21.618H66.5132C66.8449 21.0168 67.3266 20.521 67.9069 20.1834C68.4872 19.8457 69.1444 19.679 69.8083 19.701C72.4349 19.701 74.1665 21.8758 74.1665 25.2359ZM69.2478 21.5978C70.8999 21.5978 71.9835 23.041 71.9835 25.2359C71.9835 27.4499 70.8999 28.8824 69.2478 28.8824C67.6252 28.8824 66.5337 27.419 66.5337 25.2359C66.5337 23.0706 67.6252 21.5978 69.2478 21.5978Z" fill="white"/>
<path fill-rule="evenodd" clip-rule="evenodd" d="M62.7758 25.2359C62.7758 28.6032 61.0555 30.7685 58.4573 30.7685C57.7989 30.804 57.1442 30.6449 56.5684 30.3094C55.9926 29.9738 55.5191 29.4756 55.202 28.8717H55.1531V34.2403H53.0292V19.815H55.0849V21.618H55.1236C55.4553 21.0168 55.937 20.521 56.5173 20.1834C57.0976 19.8457 57.7548 19.679 58.4187 19.701C61.0452 19.701 62.7758 21.8758 62.7758 25.2359ZM57.8581 21.5978C59.5102 21.5978 60.5927 23.041 60.5927 25.2359C60.5927 27.4499 59.5102 28.8824 57.8581 28.8824C56.2356 28.8824 55.144 27.419 55.144 25.2359C55.144 23.0706 56.2356 21.5978 57.8581 21.5978Z" fill="white"/>
<path fill-rule="evenodd" clip-rule="evenodd" d="M48.0808 26.6363H42.6708L41.3712 30.6545H39.0801L44.2035 15.7873H46.5845L51.7091 30.6545H49.3782L48.0808 26.6363ZM47.5191 24.7822H43.2302L43.2314 24.781L45.3463 18.2602H45.4042L47.5191 24.7822Z" fill="white"/>
<path fill-rule="evenodd" clip-rule="evenodd" d="M98.101 25.2359C98.101 21.8247 100.018 19.682 103.008 19.682C106.009 19.682 107.918 21.8247 107.918 25.2359C107.918 28.6555 106.019 30.7887 103.008 30.7887C99.9987 30.7887 98.101 28.6555 98.101 25.2359ZM103.008 21.5147C104.73 21.5147 105.753 22.896 105.753 25.2359C105.753 27.5841 104.73 28.9536 103.008 28.9536C101.288 28.9536 100.265 27.5841 100.265 25.2359C100.265 22.9067 101.287 21.5147 103.008 21.5147Z" fill="white"/>
<path fill-rule="evenodd" clip-rule="evenodd" d="M124.754 27.4713C124.469 29.4382 122.639 30.7887 120.298 30.7887C117.288 30.7887 115.42 28.6769 115.42 25.287C115.42 21.8865 117.298 19.6808 120.209 19.6808C123.072 19.6808 124.872 21.7415 124.872 25.0281V25.7906H117.564V25.9248C117.53 26.3237 117.577 26.7256 117.703 27.1038C117.829 27.482 118.031 27.8279 118.295 28.1186C118.558 28.4086 118.877 28.6368 119.23 28.788C119.584 28.9391 119.965 29.0097 120.347 28.9952C120.849 29.0441 121.353 28.9222 121.784 28.6476C122.215 28.373 122.549 27.9604 122.737 27.4713H124.754ZM122.747 24.2358H117.574C117.573 23.8735 117.64 23.5146 117.773 23.1797C117.905 22.8448 118.099 22.5405 118.345 22.2844C118.589 22.0287 118.88 21.8262 119.2 21.6888C119.52 21.5514 119.863 21.4817 120.209 21.4838C120.553 21.4763 120.894 21.5432 121.211 21.6801C121.528 21.8171 121.815 22.0212 122.053 22.2796C122.291 22.5383 122.476 22.8455 122.595 23.1821C122.715 23.5187 122.766 23.8774 122.747 24.2358Z" fill="white"/>
</svg>
